<svg xmlns="http://www.w3.org/2000/svg" width="380.84" height="361.779" viewBox="0 0 380.84 361.779">
  <g id="Illustration" transform="translate(71.877 34.602)">
    <path id="Path_FILL:STYLE1_LIGHT_" data-name="Path [FILL:STYLE1/LIGHT]" d="M96.021,80.211c8.061.6,11.733,8.112,38.33-6.413S180.12-4.086,226.028,1.532s66.838,31.447,74.59,78.026-11.281,70.95-16.267,98.808-49.672,65.249-118.38,35.142S73.282,188.214,39.88,195.568s-54.941-31.6-24.214-78.335S87.959,79.615,96.021,80.211Z" transform="matrix(0.788, -0.616, 0.616, 0.788, -73.283, 150.675)" fill="#cfcfcf"/>
    <path id="Path_FILL:STYLE1_BRAND_" data-name="Path [FILL:STYLE1/BRAND]" d="M231.023,182.771H344.449A24.147,24.147,0,0,1,367.971,201.7l57.312,255.889a19.717,19.717,0,0,1-3.5,16.185,19.45,19.45,0,0,1-14.556,7.722l-116.6,5.783a25.783,25.783,0,0,1-26.6-21.271L231.516,285.1l-2.419.7-6.221-34.29,2.49-.627-9.075-50.5a15.015,15.015,0,0,1,3.255-12.288A14.806,14.806,0,0,1,231.023,182.771Z" transform="translate(-216.292 -170.478)" fill="#4525f2"/>
    <path id="Path_FILL:STYLE1_LIGHT_2" data-name="Path [FILL:STYLE1/LIGHT]" d="M342.069,194.4h13.24a16.689,16.689,0,0,1,16.28,13.2L426.6,461.4a10.447,10.447,0,0,1-1.839,8.466,10.307,10.307,0,0,1-7.574,4.12L300.963,481.65A13.39,13.39,0,0,1,286.928,470.6L239.986,208.277a11.846,11.846,0,0,1,2.541-9.652,11.682,11.682,0,0,1,8.986-4.228h12.561a5.534,5.534,0,0,1,5.337,4.118h0a4.885,4.885,0,0,0,4.712,3.635h59.629a8.364,8.364,0,0,0,8.317-7.753Z" transform="translate(-228.844 -176.587)" fill="#cfcfcf"/>
    <ellipse id="Path_FILL:STYLE1_BRAND_2" data-name="Path [FILL:STYLE1/BRAND]" cx="17.348" cy="17.462" rx="17.348" ry="17.462" transform="translate(250.087 54.4)" fill="#4525f2"/>
    <path id="Path_FILL:STYLE1_TEXT_" data-name="Path [FILL:STYLE1/TEXT]" d="M723.668,693.962l3.3,14.235h-8.014l-3.3-16.133Z" transform="translate(-437.518 -403.28)" fill="#737373"/>
    <path id="Path_FILL:STYLE1_TEXT_2" data-name="Path [FILL:STYLE1/TEXT]" d="M641.668,696.064V709.35l-8.014.949V696.064Z" transform="translate(-394.173 -405.382)" fill="#737373"/>
    <path id="Path_FILL:STYLE1_TEXT_3" data-name="Path [FILL:STYLE1/TEXT]" d="M811.133,450.932s-.943,20.4-1.886,21.828-9.428,21.828-9.428,21.828L795.577,481.3s6.6-10.914,5.657-17.082a71.368,71.368,0,0,1-.349-13.759Z" transform="translate(-522.627 -311.145)" fill="#737373"/>
    <ellipse id="Path_FILL:STYLE1_TEXT_4" data-name="Path [FILL:STYLE1/TEXT]" cx="13.199" cy="13.286" rx="13.199" ry="13.286" transform="translate(248.437 63.865)" fill="#737373"/>
    <path id="Path_FILL:STYLE1_TEXT_5" data-name="Path [FILL:STYLE1/TEXT]" d="M776.6,322.456s-.471,18.98,2.828,21.828-18.856.474-18.856.474,4.714-13.286.943-16.133S776.6,322.456,776.6,322.456Z" transform="translate(-504.126 -243.881)" fill="#737373"/>
    <path id="Path_FILL:STYLE1_FOREGROUND_" data-name="Path [FILL:STYLE1/FOREGROUND]" d="M725.934,362.167s2.828-5.22,6.6-4.745,16.028,1.424,16.5,2.373,1.885,4.271,2.828,5.22,8.014,2.373,8.485,8.067-16.97,40.333-16.97,40.333,2.357,8.067,1.886,9.965,2.357,7.592,1.886,9.965,7.071,16.608,3.3,35.114v29.894s12.728,51.722,8.957,55.518-16.5,1.424-18.856,0S728.29,480.8,728.29,480.8l-4.714-24.2-.471,53.145s.943,44.6-2.357,46.028-16.028,1.9-16.971-.949c-.735-2.22-4.338-61.3-5.888-87.2a97.371,97.371,0,0,1,2.076-26.656c1.962-8.958,4.81-19.482,8.055-23.753,6.128-8.067,9.9-33.69,9.9-33.69l-8.014-14.71s4.714-4.745,7.542-4.745S725.934,362.167,725.934,362.167Z" transform="translate(-470.897 -262.239)" fill="#1c2126"/>
    <path id="Path_FILL:STYLE1_FOREGROUND_2" data-name="Path [FILL:STYLE1/FOREGROUND]" d="M814.263,383.456l2.486,1.7s1.757,30.564.342,32.462-11.246.972-11.987-.7S814.263,383.456,814.263,383.456Z" transform="translate(-527.642 -275.935)" fill="#1c2126"/>
    <path id="Path_FILL:STYLE1_TEXT_6" data-name="Path [FILL:STYLE1/TEXT]" d="M687.669,439.081c1.38,9.636,2.589,18.213-4.466,25.973a132.646,132.646,0,0,1-23.822,20.77c-.865,2.307-13.569,19.252-14.216,12.493s3.743-12.058,9.98-17.773,14.963-18.117,19.887-24.922,2.9-11.048,2.726-16.732S685.733,439.15,687.669,439.081Z" transform="translate(-443.086 -303.772)" fill="#737373"/>
    <path id="Path_FILL:STYLE1_FOREGROUND_3" data-name="Path [FILL:STYLE1/FOREGROUND]" d="M717.131,781.255s-.471,5.315-1.886,6.738-5.185,3.322-4.714,8.541,3.536,5.457,3.536,5.457l-.236-1.186,1.414.475.236.712h13.2a43.063,43.063,0,0,0-.236-7.355c-.471-2.373-.471-13.761-1.886-13.286s-5.185.949-6.128,2.847S716.66,785.431,717.131,781.255Z" transform="translate(-477.651 -484.974)" fill="#1c2126"/>
    <path id="Path_FILL:STYLE1_FOREGROUND_4" data-name="Path [FILL:STYLE1/FOREGROUND]" d="M813.56,781.255s.471,5.315,1.886,6.738,5.185,3.322,4.714,8.541-3.535,5.457-3.535,5.457l.236-1.186-1.414.475-.236.712h-13.2a43.052,43.052,0,0,1,.236-7.355c.471-2.373.471-13.761,1.885-13.286s5.185.949,6.128,2.847S814.031,785.431,813.56,781.255Z" transform="translate(-525.997 -484.974)" fill="#1c2126"/>
    <path id="Path_FILL:STYLE1_FOREGROUND_5" data-name="Path [FILL:STYLE1/FOREGROUND]" d="M723.449,378.456l-6.6,1.424s0,10.439-1.886,14.71-5.185,14.235-3.771,14.71,14.613,7.118,15.556,3.322S730.049,378.456,723.449,378.456Z" transform="translate(-477.84 -273.308)" fill="#1c2126"/>
    <ellipse id="Path_FILL:STYLE1_BRAND_3" data-name="Path [FILL:STYLE1/BRAND]" cx="17.348" cy="17.462" rx="17.348" ry="17.462" transform="translate(268.88 31.409)" fill="#4525f2"/>
    <path id="Path_FILL:STYLE1_BRAND_4" data-name="Path [FILL:STYLE1/BRAND]" d="M825.445,272.244a17.308,17.308,0,0,1-26.789-9.169,17.439,17.439,0,0,0,11.366,14.263,17.264,17.264,0,0,0,17.776-3.762,17.54,17.54,0,0,0,4.7-17.662,17.506,17.506,0,0,1-7.051,16.33Z" transform="translate(-524.255 -208.914)" fill="#4525f2"/>
    <ellipse id="Path_FILL:STYLE1_BRAND_5" data-name="Path [FILL:STYLE1/BRAND]" cx="12.722" cy="12.805" rx="12.722" ry="12.805" transform="translate(259.339 61.967)" fill="#4525f2"/>
    <ellipse id="Path_FILL:STYLE1_BRAND_6" data-name="Path [FILL:STYLE1/BRAND]" cx="11.276" cy="8.876" rx="11.276" ry="8.876" transform="translate(250.087 61.094)" fill="#4525f2"/>
    <ellipse id="Path_FILL:STYLE1_TEXT_7" data-name="Path [FILL:STYLE1/TEXT]" cx="2.14" cy="3.811" rx="2.14" ry="3.811" transform="translate(256.215 75.255)" fill="#737373"/>
  </g>
</svg>
